# xmcd
#
# Track frame offsets:
#	150
#	15304
#	29250
#	44826
#	61874
#	77777
#	91543
#	105545
#	119005
#	133490
#	146808
#	163406
#
# Disc length: 2360 seconds
#
# Revision: 1
# Processed by: cddbd v1.5.2PL0 Copyright (c) Steve Scherf et al.
# Submitted via: audiograbber 1.83.01
#
DISCID=a709360c
DTITLE=Meghan Patrick - Country Music Made Me Do It
DYEAR=2018
DGENRE=Country
TTITLE0=Country Music Made Me Do It
TTITLE1=George Strait
TTITLE2=Walls Come Down
TTITLE3=The Bad Guy
TTITLE4=Small Town
TTITLE5=The Buzz
TTITLE6=Feel Me Gone
TTITLE7=Hardest on My Heart
TTITLE8=We Got It All
TTITLE9=Case of Beer and a Bed
TTITLE10=The Way You Apologize
TTITLE11=Underrated
EXTD=
EXTT0=
EXTT1=
EXTT2=
EXTT3=
EXTT4=
EXTT5=
EXTT6=
EXTT7=
EXTT8=
EXTT9=
EXTT10=
EXTT11=
PLAYORDER=
